<svg id="gamepad_1_" data-name="gamepad (1)" xmlns="http://www.w3.org/2000/svg" width="95.909" height="75.613" viewBox="0 0 95.909 75.613">
  <path id="Trazado_5200" data-name="Trazado 5200" d="M88.746,64.123a20.068,20.068,0,0,0-17.112-9.949H23.878A20.068,20.068,0,0,0,6.765,64.123,53.372,53.372,0,0,0,0,89.99c0,21.888,8.755,39.8,19.9,39.8,5.969,0,10.745-5.571,14.327-17.112a3.953,3.953,0,0,1,3.98-2.786H57.7a4.792,4.792,0,0,1,3.98,2.786c3.582,11.541,8.357,17.112,14.327,17.112,11.143,0,19.9-17.908,19.9-39.8A58.588,58.588,0,0,0,88.746,64.123Zm-13.133,57.7c-1.194,0-3.98-3.184-6.765-11.541a11.937,11.937,0,0,0-11.541-8.357H38.2a12.458,12.458,0,0,0-11.541,8.357c-2.786,8.357-5.572,11.541-6.765,11.541-3.98,0-11.939-12.337-11.939-31.837A47.051,47.051,0,0,1,13.531,68.1a12.927,12.927,0,0,1,10.347-5.969H71.633A12.927,12.927,0,0,1,81.981,68.1,47.053,47.053,0,0,1,87.552,89.99C87.552,109.49,79.592,121.827,75.613,121.827Z" transform="translate(0 -54.174)" fill="#43d87e"/>
  <path id="Trazado_5201" data-name="Trazado 5201" d="M105.316,157.326h-4v-4a4,4,0,1,0-7.992,0v4h-4a4,4,0,1,0,0,7.992h4v4a4,4,0,1,0,7.992,0v-4h4a4,4,0,0,0,0-7.992Z" transform="translate(-69.35 -131.509)" fill="#43d87e"/>
  <ellipse id="Elipse_1108" data-name="Elipse 1108" cx="5.994" cy="5.994" rx="5.994" ry="5.994" transform="translate(67.936 17.825)" fill="#43d87e"/>
  <ellipse id="Elipse_1109" data-name="Elipse 1109" cx="5.994" cy="5.994" rx="5.994" ry="5.994" transform="translate(55.947 29.814)" fill="#43d87e"/>
</svg>
