<svg xmlns="http://www.w3.org/2000/svg" width="92.145" height="92.145" viewBox="0 0 92.145 92.145">
  <path id="screen-play" d="M72.948,0H19.2A19.219,19.219,0,0,0,0,19.2V49.911a19.219,19.219,0,0,0,19.2,19.2H72.948a19.219,19.219,0,0,0,19.2-19.2V19.2A19.219,19.219,0,0,0,72.948,0ZM84.466,49.911A11.532,11.532,0,0,1,72.948,61.429H19.2A11.532,11.532,0,0,1,7.679,49.911V19.2A11.532,11.532,0,0,1,19.2,7.679H72.948A11.532,11.532,0,0,1,84.466,19.2ZM38.394,84.465a7.679,7.679,0,1,1-7.679-7.679A7.677,7.677,0,0,1,38.394,84.465ZM58.854,26.91,43.508,18.383c-5.544-3.329-13.207,1.179-12.992,7.644v17.05c-.219,6.465,7.448,10.969,12.992,7.644l15.35-8.527c5.909-3.052,5.909-12.236,0-15.284Zm-3.732,8.573L39.776,44.01a1.064,1.064,0,0,1-1.582-.929V26.027a1.011,1.011,0,0,1,.526-.918,1.073,1.073,0,0,1,.541-.157,1.059,1.059,0,0,1,.518.142l15.346,8.527a1.065,1.065,0,0,1,0,1.866ZM92.145,84.461A3.838,3.838,0,0,1,88.305,88.3H49.912a3.839,3.839,0,1,1,0-7.679H88.305A3.838,3.838,0,0,1,92.145,84.461Zm-76.787,0A3.838,3.838,0,0,1,11.518,88.3H3.839a3.839,3.839,0,1,1,0-7.679h7.679A3.838,3.838,0,0,1,15.357,84.461Z" fill="#43d87e"/>
</svg>
