<svg id="Grupo_5522" data-name="Grupo 5522" xmlns="http://www.w3.org/2000/svg" xmlns:xlink="http://www.w3.org/1999/xlink" width="59.063" height="71.694" viewBox="0 0 59.063 71.694">
  <defs>
    <clipPath id="clip-path">
      <rect id="Rectángulo_6328" data-name="Rectángulo 6328" width="59.063" height="71.695" fill="#43d87e"/>
    </clipPath>
  </defs>
  <g id="Grupo_5521" data-name="Grupo 5521" clip-path="url(#clip-path)">
    <path id="Trazado_5156" data-name="Trazado 5156" d="M30.23,0a3.187,3.187,0,0,1,.442,6.041L30.65,7.419h9.992a5.536,5.536,0,0,1,4.375,2.618c.328.556.573,1.728.8,2,.483.574,3.137,1.39,3.9,1.978a.451.451,0,0,1,.232.468l-.077,12.537c-.089.158-.254.212-.393.306-.868.586-2.965,1.184-3.583,1.731a16.68,16.68,0,0,0-.683,1.836c-.626,1.236-2.585,2.846-4.007,2.846H37.917v2.1H48.4v2.1h2.1v-2.1h5.8c1.173,0,2.435,1.631,2.57,2.745.611,5.039-.43,11.209.021,16.367.076,1.675-1.911,3.984-3.569,3.984H50.495v-14.7H48.4c-.184,4.652.546,9.459-.8,13.965a18.973,18.973,0,0,1-2.661,5.453c-.171.24-1.021,1.43-1.146,1.513-.213.141-.212.029-.356-.072A8.361,8.361,0,0,1,42.144,63.9a18.014,18.014,0,0,0,4.165-10.075L46.3,37.935H12.761l-.006,15.894A16.877,16.877,0,0,0,40.644,65.405l1.321,1.444c.044.19-1.247,1.121-1.489,1.3a18.479,18.479,0,0,1-5.744,2.786l-3.664.74c-1-.055-2.08.075-3.075,0a19.222,19.222,0,0,1-16.7-14c-1.129-4.313-.432-9.012-.627-13.44h-2.1v14.7H3.747C2.089,58.932.1,56.623.178,54.948.628,49.789-.413,43.619.2,38.58c.135-1.114,1.4-2.745,2.57-2.745h5.8v2.1h2.1v-2.1H21.146v-2.1H17.862c-2.162,0-4.353-2.675-4.685-4.686l-4.049-2.1V21.7h2.1v3.99l2.1,1.05V14.418l-2.1.98v4.2h-2.1V14.208L13.174,12.1c.616-2.4,2.589-4.683,5.247-4.683h9.992l-.023-1.378A3.186,3.186,0,0,1,28.833,0Zm.1,2.42c-.829-1.029-2.489.345-1.593,1.459.828,1.03,2.489-.346,1.593-1.459M18.463,9.56a3.209,3.209,0,0,0-3.047,2.688c-.56,5.192.42,11.363,0,16.659a3.235,3.235,0,0,0,3,2.734c7.185-.471,15.136.61,22.231,0a3.189,3.189,0,0,0,3.005-2.869c.466-5.211-.365-11.105,0-16.389-.249-1.906-1.631-2.733-3.424-2.869-7-.532-14.7.375-21.766.047m27.281,4.858V26.736c.462-.175,2.017-.756,2.1-1.189l-.087-10.164ZM35.821,33.735H23.243v2.1H35.821Zm-29.349,4.2H3.048c-.265,0-.854.7-.772,1.047V54.946a2.392,2.392,0,0,0,1.75,1.887H6.472Zm49.543,0c-.909-.195-2.439.144-3.424,0v18.9h2.446a2.392,2.392,0,0,0,1.75-1.887V38.982a1.22,1.22,0,0,0-.772-1.047m-45.351,2.1h-2.1v2.1h2.1Zm39.83,0H48.4v2.1h2.1Z" transform="translate(0)" fill="#43d87e"/>
    <path id="Trazado_5157" data-name="Trazado 5157" d="M113.394,219.676v4.339h2.1v2.1h-2.1v3.22h2.1v2.1h-2.1v3.08h2.1v2.1h-2.1v4.339H92.151v-4.339h-2.1v-2.1h2.1v-3.08h-2.1v-2.1h2.1v-3.22h-2.1v-2.1h2.1v-4.339Zm-2.1,2.1H94.248v17.078H111.3Z" transform="translate(-73.241 -178.661)" fill="#43d87e"/>
    <path id="Trazado_5158" data-name="Trazado 5158" d="M140.28,124.458c.116,2.776-1.168,5.452-4.025,6.117-3.975.926-6.852-2.257-6.6-6.117Zm-2.376,2.1h-5.87a3.111,3.111,0,0,0,5.87,0" transform="translate(-105.438 -101.221)" fill="#43d87e"/>
    <path id="Trazado_5159" data-name="Trazado 5159" d="M104.847,79.5c4.385-.6,4.909,5.76.931,6.25-4.086.5-4.866-5.712-.931-6.25m.277,2.087a1.055,1.055,0,0,0,.493,2.051,1.055,1.055,0,0,0-.493-2.051" transform="translate(-83.176 -64.624)" fill="#43d87e"/>
    <path id="Trazado_5160" data-name="Trazado 5160" d="M183.443,79.5c4.385-.6,4.909,5.76.931,6.25-4.086.5-4.866-5.712-.931-6.25m.277,2.087a1.055,1.055,0,0,0,.493,2.051,1.055,1.055,0,0,0-.493-2.051" transform="translate(-147.097 -64.624)" fill="#43d87e"/>
    <path id="Trazado_5161" data-name="Trazado 5161" d="M143.191,64.23h-2.236l.131-2.039c.377-.066,1.871-.179,2.044.07Z" transform="translate(-114.638 -50.512)" fill="#43d87e"/>
    <path id="Trazado_5162" data-name="Trazado 5162" d="M165.647,64.23h-2.236l.131-2.039c.377-.066,1.871-.179,2.044.07Z" transform="translate(-132.901 -50.512)" fill="#43d87e"/>
    <path id="Trazado_5163" data-name="Trazado 5163" d="M129.548,252.017l3.231,8.792-1.952.707-.685-2.017-2.928-.06-.723,2.077-1.944-.715,3.222-8.786Zm-.26,5.3-.7-1.537-.56,1.538Z" transform="translate(-101.294 -204.963)" fill="#43d87e"/>
    <path id="Trazado_5164" data-name="Trazado 5164" d="M181.312,251.822V261.2l-2.035-.131-.042-9.018c.146-.446,1.651-.143,2.077-.229" transform="translate(-145.771 -204.788)" fill="#43d87e"/>
  </g>
</svg>
