<svg xmlns="http://www.w3.org/2000/svg" xmlns:xlink="http://www.w3.org/1999/xlink" width="58.97" height="59.78" viewBox="0 0 58.97 59.78">
  <defs>
    <clipPath id="clip-path">
      <rect id="Rectángulo_6332" data-name="Rectángulo 6332" width="58.97" height="59.78" fill="#43d87e"/>
    </clipPath>
  </defs>
  <g id="Grupo_5530" data-name="Grupo 5530" transform="translate(0 0)">
    <g id="Grupo_5529" data-name="Grupo 5529" transform="translate(0 0)" clip-path="url(#clip-path)">
      <path id="Trazado_5187" data-name="Trazado 5187" d="M2.664,50.178A3.135,3.135,0,0,1,.006,47.393L0,12.923a2.977,2.977,0,0,1,2.545-2.9c4.171-.474,9.216.352,13.48,0l2.392-.557a4.661,4.661,0,0,0,.726-1.641c-.015-.825-1.722-1.589-.934-2.721a30.792,30.792,0,0,1,2.714-2.729c1.212-.87,1.979,1.063,2.989.87a10.944,10.944,0,0,0,1.31-.561c.44-.366.049-2.468,1.2-2.62a25.942,25.942,0,0,1,3.794,0c1.57.142.86,1.923,1.384,2.581a12.481,12.481,0,0,0,1.358.6c.932.187,1.921-1.725,2.927-.926.488.725,2.748,2.4,2.963,3.074.264.829-.936,1.657-1.131,2.442L38.3,9.35a6.78,6.78,0,0,0,1.927.469,1.552,1.552,0,0,1,.385.206H51.664c.048-.759-.263-1.577.556-1.989l5.892-.03a.911.911,0,0,1,.765.892,35.734,35.734,0,0,1-.031,5.542c-.178,1.014-1.229.6-1.982.679V47.513a3.243,3.243,0,0,1-2.66,2.665H35.35v3.79h3.014c1.19,0,2.715,1.614,3.117,2.68.267.708.605,2.833-.3,3.1l-25.163.033c-1.436.012-.892-2.55-.526-3.385.418-.955,1.941-2.427,3.016-2.427h3.014v-3.79Zm27-48.428H27.209c-.154.1-.221,1.612-.539,2.007A12.856,12.856,0,0,1,24.009,5c-1.234.256-1.921-1.1-2.485-.84-.378.173-1.218,1.358-1.639,1.661.318.557,1.057,1.243,1.055,1.9a14.8,14.8,0,0,1-1.051,2.748c-.517.855-1.505.513-2.275.943l.056,2.417c.161.224,1.646.16,2.081.639A27.285,27.285,0,0,1,20.9,17.1c.2.964-.673,1.475-.987,2.283l1.78,1.757c.488-.27,1.237-1.03,1.776-1.054a15.453,15.453,0,0,1,2.938,1.09c.6.38.523,1.5.72,2.121l2.531.1c.155-.1.22-1.612.539-2.007a16.341,16.341,0,0,1,2.78-1.242c1-.21,1.411.634,2.253.963l1.753-1.783c-.319-.558-1.056-1.241-1.055-1.9a16.926,16.926,0,0,1,1.05-2.749c.495-.775,1.371-.506,2.072-.767.166-.062.17-.113.2-.273a16.845,16.845,0,0,0-.016-2.295c-.555-.257-1.544-.172-2-.54a14.428,14.428,0,0,1-1.263-2.762c-.187-1,.654-1.447.985-2.281L35.267,4.116c-.339-.087-1.242.949-1.986.947a13.407,13.407,0,0,1-2.743-1.054c-.814-.492-.55-1.471-.878-2.259M57.22,9.67h-3.9v3.79h3.9ZM15.963,11.683H2.546c-.328,0-1.026.952-.891,1.358L1.74,47.55c.175.678.621.879,1.278.97l50.719,0c1.014-.09,1.388-.469,1.478-1.481V15.527L55.1,15.17h-1.67l-.111.244.006,28.551c.006.331-.256.517-.509.674l-48.381.093a.886.886,0,0,1-.891-.884l0-29.387a.971.971,0,0,1,.774-1H15.963Zm35.7,0H40.906V13.46H51.664ZM16.14,15.118H5.206V43.071H22.347V36.2H19.155c-.765,2.966-5.175,2.573-5.527-.446-.4-3.422,4.412-4.44,5.606-1.207,1.225.124,2.816-.185,3.993,0a.9.9,0,0,1,.781.757c.29,2.222-.276,5.105-.012,7.356.02.172.015.3.183.409h1.714V33.418l-2.368-2.376a4.82,4.82,0,0,1-1.775.251,2.844,2.844,0,1,1,3.2-2.5c-.03.338-.3.853-.18,1.121l2.782,2.907V43.071h1.773V32.826L32.1,29.919c.124-.277-.146-.652-.182-1a2.844,2.844,0,0,1,3.643-3.177c2.572.64,2.686,4.442.2,5.373a3.37,3.37,0,0,1-2.426-.072l-2.368,2.376v9.653H32.69c.169-.1.163-.236.183-.409.26-2.222-.205-4.957-.011-7.236a1.3,1.3,0,0,1,.114-.567c.38-.6,3.857-.2,4.658-.312.857-2.369,4.289-2.759,5.34-.36,1.626,3.71-4.089,5.891-5.261,2.014H34.523v6.87H51.664V15.118H40.729a1.869,1.869,0,0,1-.384.207,18.363,18.363,0,0,0-2.051.458l-.578,1.639c.221.659,1.351,1.607,1.133,2.319-.2.645-2.587,2.493-3.1,3.178-.839.622-2-1.133-2.675-1.03a14.071,14.071,0,0,0-1.48.6c-.3.35-.181,2.259-.765,2.5a28.162,28.162,0,0,1-4.292.084c-1.355-.125-.783-1.681-1.313-2.621l-1.52-.575c-1.05.3-1.674,1.71-2.78.883a36.037,36.037,0,0,1-2.9-3.019c-.219-.712.912-1.66,1.133-2.319l-.58-1.635a13.585,13.585,0,0,0-2.049-.462c-.162-.031-.319-.2-.384-.207m5.581,12.226c-1.228.281-.916,2.5.535,2.322a1.2,1.2,0,1,0-.535-2.322M33.85,29.3c1.113,1.2,2.925-.656,1.68-1.744A1.217,1.217,0,0,0,33.85,29.3M16.29,34.209a1.193,1.193,0,0,0-.032,2.352,1.193,1.193,0,1,0,.032-2.352m23.238.375c-1.087,1.1.739,2.816,1.782,1.608a1.2,1.2,0,0,0-1.782-1.608M33.7,50.178H23.174v3.79H33.7Zm6.384,7.936A2.526,2.526,0,0,0,38,55.637c-6.111.328-12.739-.472-18.791-.015a2.474,2.474,0,0,0-2.418,2.492Z" transform="translate(0 0)" fill="#43d87e"/>
      <path id="Trazado_5188" data-name="Trazado 5188" d="M294.736,9.886a23.892,23.892,0,0,1,3.992-.028c.61.068,1.049.23,1.125.887a31.322,31.322,0,0,1-.055,4.568c-.131.424-.551.541-.952.586a23.292,23.292,0,0,1-4.382-.11.961.961,0,0,1-.414-.3c-.375-.58.052-4.061-.107-4.98a.926.926,0,0,1,.793-.627m.859,4.354h2.423l.177-.178V11.694l-.177-.178H295.6Z" transform="translate(-247.478 -8.243)" fill="#43d87e"/>
      <path id="Trazado_5189" data-name="Trazado 5189" d="M287.064,102.92a23.706,23.706,0,0,1,3.76-.028c.638.074.817.412.884,1.01a18.387,18.387,0,0,1-.078,3.593.812.812,0,0,1-.805.614,24.134,24.134,0,0,1-3.85-.056c-.423-.132-.54-.553-.585-.953a20.723,20.723,0,0,1,0-3.2c.05-.445.186-.873.675-.981m2.989,1.633h-2.01v1.9h2.01Z" transform="translate(-241.108 -86.591)" fill="#43d87e"/>
      <path id="Trazado_5190" data-name="Trazado 5190" d="M143.5,36.478c9.037-.892,10.095,12.818,1.382,13.585-9.079.8-10.2-12.714-1.382-13.585m.116,1.656c-6.729.709-5.684,11.079,1.255,10.259,6.471-.765,5.55-10.976-1.255-10.259" transform="translate(-115.737 -30.682)" fill="#43d87e"/>
    </g>
  </g>
</svg>
