<svg xmlns="http://www.w3.org/2000/svg" xmlns:xlink="http://www.w3.org/1999/xlink" width="47.988" height="47.453" viewBox="0 0 47.988 47.453">
  <defs>
    <clipPath id="clip-path">
      <rect id="Rectángulo_6330" data-name="Rectángulo 6330" width="47.988" height="47.453" fill="#43d87e"/>
    </clipPath>
  </defs>
  <g id="Grupo_5526" data-name="Grupo 5526" transform="translate(0 0)">
    <g id="Grupo_5525" data-name="Grupo 5525" transform="translate(0 0)" clip-path="url(#clip-path)">
      <path id="Trazado_5181" data-name="Trazado 5181" d="M6.143.034,41.8,0a6.5,6.5,0,0,1,6.283,5.911V29.659A6.5,6.5,0,0,1,41.8,35.57H6.4A6.507,6.507,0,0,1,.12,29.846V5.725A6.481,6.481,0,0,1,6.143.034m.1,2.306A4.155,4.155,0,0,0,2.422,6.014V29.558a4.2,4.2,0,0,0,4.072,3.706c12.06-.113,24.166.21,36.2-.163a4.123,4.123,0,0,0,3.088-3.633V6.1a4.189,4.189,0,0,0-4.077-3.8Z" transform="translate(-0.105 -0.001)" fill="#43d87e"/>
      <path id="Trazado_5182" data-name="Trazado 5182" d="M14.416,291.458l32.459.011a1.161,1.161,0,0,1,.1,2.311l-32.51-.008a5.485,5.485,0,0,1-4.257,4.112,5.338,5.338,0,0,1-6.171-4.1c-1.055-.22-3.788.6-4.014-.929-.3-2.017,2.872-1.231,4.011-1.4a5.335,5.335,0,0,1,10.386,0m-5.794-1.79c-3.451.541-3.032,6.1.644,6.035,4.128-.07,3.839-6.737-.644-6.035" transform="translate(0 -250.523)" fill="#43d87e"/>
      <path id="Trazado_5183" data-name="Trazado 5183" d="M135.452,71.541l-17.644,9.088c-1.062.318-1.641-.286-1.7-1.315V62.1c.063-1.033.643-1.632,1.7-1.315l17.717,9.159a1.224,1.224,0,0,1-.073,1.594M118.41,63.788v13.84l13.622-6.967Z" transform="translate(-101.225 -52.923)" fill="#43d87e"/>
    </g>
  </g>
</svg>
