<svg xmlns="http://www.w3.org/2000/svg" width="78.46" height="78.455" viewBox="0 0 78.46 78.455">
  <path id="artificial-intelligence" d="M62.137,39.228V58.842a3.269,3.269,0,0,1-6.538,0V39.228a3.269,3.269,0,0,1,6.538,0ZM37.881,21.958,47.92,58.011a3.234,3.234,0,0,1-6.227,1.746l-2.1-7.453H22.572l-2.1,7.453a3.232,3.232,0,0,1-3.112,2.354h0a3.234,3.234,0,0,1-3.115-4.1L24.347,21.7a6.9,6.9,0,0,1,3.589-4.593,6.89,6.89,0,0,1,9.948,4.854Zm-.134,23.808L31.441,23.422a.369.369,0,0,0-.716,0L24.419,45.766ZM75.217,32.69a3.27,3.27,0,0,0-3.269,3.269V62.111a9.819,9.819,0,0,1-9.807,9.807H16.371a9.819,9.819,0,0,1-9.807-9.807V16.345a9.819,9.819,0,0,1,9.807-9.807H42.523a3.269,3.269,0,1,0,0-6.538H16.371A16.364,16.364,0,0,0,.026,16.345V62.111A16.364,16.364,0,0,0,16.371,78.456H62.137A16.364,16.364,0,0,0,78.482,62.111V35.959a3.27,3.27,0,0,0-3.269-3.269ZM52.824,16.933l6.107,2.573,2.435,6.1a3.476,3.476,0,0,0,6.453,0l2.422-6.061L76.3,17.12a3.475,3.475,0,0,0,0-6.453L70.241,8.244,67.819,2.184a3.478,3.478,0,0,0-6.456,0L58.953,8.208l-6.015,2.278a3.474,3.474,0,0,0-.118,6.45Z" transform="translate(-0.026)" fill="#43d87e"/>
</svg>
