<svg xmlns="http://www.w3.org/2000/svg" xmlns:xlink="http://www.w3.org/1999/xlink" width="59.036" height="51.609" viewBox="0 0 59.036 51.609">
  <defs>
    <clipPath id="clip-path">
      <rect id="Rectángulo_6327" data-name="Rectángulo 6327" width="59.036" height="51.609" fill="#43d87e"/>
    </clipPath>
  </defs>
  <g id="Grupo_5520" data-name="Grupo 5520" transform="translate(0 0)">
    <g id="Grupo_5519" data-name="Grupo 5519" transform="translate(0 0.001)" clip-path="url(#clip-path)">
      <path id="Trazado_5148" data-name="Trazado 5148" d="M103.529,5.426a15.375,15.375,0,0,1,3.533,17.316,3.787,3.787,0,0,1-3.463,6.425c-.31-.053-.978-.462-1.076-.454s-1.239.9-1.51,1.061A15.561,15.561,0,0,1,83.5,29.046c-.238-.169-1.258-1.11-1.345-1.127-.183-.036-.519.2-.776.225a3.807,3.807,0,0,1-4.161-5.074c.163-.482.819-1.17.848-1.38.052-.374-.529-2.041-.62-2.639a15.637,15.637,0,0,1,19.446-17.5,3.752,3.752,0,0,1,5.991-.1c.967,1.285.8,2.474.649,3.984m-3.973-3.6c-2.188.346-2.113,3.631-.036,3.887a1.977,1.977,0,1,0,.036-3.887M87.584,3.951V6.756H90.52c.272,0,.979.418.979.718v4.632H93.39a2.794,2.794,0,0,1,.718.587V18.76h5.741V14.65a2.788,2.788,0,0,1,.587-.718h5.806a12.75,12.75,0,0,0-3.868-7.157c-2.846,1.945-6.61,0-6.192-3.53a13.013,13.013,0,0,0-8.6.7m2.088,4.632H86.345A1.274,1.274,0,0,1,85.757,8V4.8a13.452,13.452,0,0,0-5.872,7.176h2.675a3.053,3.053,0,0,1,.457.457v4.11h5.937c.123,0,.737.494.714.721l0,6.847h2.936a1.274,1.274,0,0,1,.587.587v5.48c.094.122.134.167.294.171.218.005.914-.087,1.191-.121a14.077,14.077,0,0,0,4.78-1.613c.361-.2,1.674-.9,1.668-1.282,0-.236-.278-.578-.331-.844a3.912,3.912,0,0,1,.056-2.222,4.036,4.036,0,0,1,4.718-2.524c.159-.506.363-1.005.5-1.519a15.175,15.175,0,0,0,.428-1.92V15.759h-4.828V20c0,.054-.632.7-.841.594-2.392-.221-5.243.273-7.578,0-.217-.026-.845-.257-.845-.459v-6.2H90.259a2.789,2.789,0,0,1-.587-.718Zm-1.7,9.786H81.908a2.467,2.467,0,0,1-.466-.317c-.393-.545.088-3.418-.178-4.258l-1.887-.108a15.366,15.366,0,0,0,.25,7.03,3.835,3.835,0,0,1,4.7,4.9c-.164.5-.5.878-.657,1.359A14.39,14.39,0,0,0,91.5,30.242V25.937H88.563a1.274,1.274,0,0,1-.587-.587ZM82.19,22.98c-2.038-2.038-4.878,1.463-2.557,3.013A1.984,1.984,0,0,0,82.19,22.98m21.933.506c-2.373.344-2.05,4.059.344,4.006,2.738-.06,2.479-4.415-.344-4.006" transform="translate(-63.283 0)" fill="#43d87e"/>
      <path id="Trazado_5149" data-name="Trazado 5149" d="M19.6,148.452.877,129.665c-.945-1.09.366-2.138,1.375-1.245l23.226,23.225c.783.767.343,1.875-.824,1.606-.753-.173-2.381-2.474-3.186-2.947l-3.621-.021-8.161,4.822H49.353l-8.161-4.822-3.621.021c-.9.557-2.511,2.934-3.467,3.038a.935.935,0,0,1-.542-1.7L56.787,128.42c1.009-.893,2.32.155,1.375,1.245L39.436,148.452h7.5l11.878,6.911c.384.429.258,1.349-.351,1.485L.781,156.9a.932.932,0,0,1-.558-1.539L12.1,148.452Zm-5.48,1.827H12.231l-8.025,4.828H6.1Zm32.685,0H44.916l8.024,4.828h1.892Z" transform="translate(0.001 -105.292)" fill="#43d87e"/>
      <path id="Trazado_5150" data-name="Trazado 5150" d="M179.612,227.878a.867.867,0,0,1,1.1,1.095,27.1,27.1,0,0,1-1.272,3.437.917.917,0,0,1-1.729-.543,29.4,29.4,0,0,1,1.339-3.5c.151-.257.238-.415.559-.487" transform="translate(-146.083 -187.301)" fill="#43d87e"/>
      <path id="Trazado_5151" data-name="Trazado 5151" d="M125.492,197.748a29.074,29.074,0,0,1-1.461-3.692,1.6,1.6,0,0,1,.054-.837c1.924-1.611,2.2,2.65,2.934,3.729a.964.964,0,0,1-1.527.8" transform="translate(-101.937 -158.542)" fill="#43d87e"/>
      <path id="Trazado_5152" data-name="Trazado 5152" d="M192.454,197.468a.945.945,0,0,1-1.5-.777,32.7,32.7,0,0,1,1.381-3.716c.568-.866,1.776-.446,1.587.8a30.492,30.492,0,0,1-1.464,3.689" transform="translate(-156.968 -158.261)" fill="#43d87e"/>
      <path id="Trazado_5153" data-name="Trazado 5153" d="M137.469,227.816a.973.973,0,0,1,1.063.318A35.969,35.969,0,0,1,139.9,231.6c.262,1.1-.849,1.727-1.538.882a23.065,23.065,0,0,1-1.444-3.846,1,1,0,0,1,.554-.821" transform="translate(-112.552 -187.24)" fill="#43d87e"/>
      <path id="Trazado_5154" data-name="Trazado 5154" d="M161.18,194.144a.963.963,0,0,1,1.113.4,18.931,18.931,0,0,1,.069,3.79.885.885,0,0,1-1.7.189,17.954,17.954,0,0,1-.091-3.677.768.768,0,0,1,.609-.7" transform="translate(-131.956 -159.57)" fill="#43d87e"/>
      <path id="Trazado_5155" data-name="Trazado 5155" d="M161.21,231.539a.963.963,0,0,1,1.113.4,14.305,14.305,0,0,1,.069,3.268.885.885,0,0,1-1.7.189,13.678,13.678,0,0,1-.071-3.265.755.755,0,0,1,.589-.589" transform="translate(-131.987 -190.312)" fill="#43d87e"/>
    </g>
  </g>
</svg>
