<svg xmlns="http://www.w3.org/2000/svg" xmlns:xlink="http://www.w3.org/1999/xlink" width="59.003" height="61.142" viewBox="0 0 59.003 61.142">
  <defs>
    <clipPath id="clip-path">
      <rect id="Rectángulo_6326" data-name="Rectángulo 6326" width="59.003" height="61.142" fill="#43d87e"/>
    </clipPath>
  </defs>
  <g id="Grupo_5518" data-name="Grupo 5518" transform="translate(0 0)">
    <g id="Grupo_5517" data-name="Grupo 5517" transform="translate(0 0)" clip-path="url(#clip-path)">
      <path id="Trazado_5129" data-name="Trazado 5129" d="M22.57,4.189a22.492,22.492,0,0,1,22.6,14.438,15.649,15.649,0,0,1,.986,3.662,1,1,0,0,1-1.843.508c-.364-.595-.709-2.642-1.045-3.535A20.371,20.371,0,1,0,16.288,45.279a25.158,25.158,0,0,0,9.326,1.727c1.1,1.189.2,1.9-1.173,1.947-7.987.269-15.977-4.737-19.775-11.628-7.824-14.2,1.822-32.03,17.9-33.135" transform="translate(3.254 7.094)" fill="#43d87e"/>
      <path id="Trazado_5130" data-name="Trazado 5130" d="M24.41,12.046c2.441-.176,6.831.605,8.723,2.256.915.8.372,1.933-.749,1.773a12.291,12.291,0,0,1-1.765-.907C18.464,9.915,7.86,24.25,16.056,34.086c7.607,9.125,22.452,3.043,21.586-8.777-.071-.975-.614-2.3-.638-3.06a1,1,0,0,1,1.5-.98c.508.217.744,1.518.858,2.066,2.56,12.271-10.892,21.681-21.518,14.943C6.315,30.969,10.851,13.027,24.41,12.046" transform="translate(19.322 20.617)" fill="#43d87e"/>
      <path id="Trazado_5131" data-name="Trazado 5131" d="M8.039,5.374A1.018,1.018,0,0,1,9.13,6.6,32.86,32.86,0,0,1,6.643,9.84C-4.778,26.276,6.478,48.929,26.3,49.89a53.562,53.562,0,0,0,5.462-.38c1.444-.062,1.767,1.382.73,1.881a14.431,14.431,0,0,1-3.907.413C5.359,52.681-8.6,25.8,5.916,7.456c.424-.538,1.5-2,2.123-2.082" transform="translate(0 9.202)" fill="#43d87e"/>
      <path id="Trazado_5132" data-name="Trazado 5132" d="M21.3,2.083c-.019.614.152,1.276-.372,1.727a1,1,0,0,1-1.653-.652C19.169,2.5,19.1.53,19.742.2a20.767,20.767,0,0,1,4.423-.16c.7.065,1.119.2,1.205.958s-.157,5.069.011,5.27a31.724,31.724,0,0,1,6.5,1.572A11.648,11.648,0,0,1,35.021,9.4a.977.977,0,0,1-1.051,1.564c-.6-.119-2.142-1-2.916-1.279A25.493,25.493,0,0,0,7.671,12.8c-.668.47-1.119,1.376-2.061.491-.252-.236-2.395-3.206-2.5-3.478-.329-.855.263-1.727,1.176-1.436.638.2,1.735,2.134,2.158,2.742l.168-.011A27.176,27.176,0,0,1,23.336,6.155V2.083Z" transform="translate(5.181 -0.001)" fill="#43d87e"/>
      <path id="Trazado_5133" data-name="Trazado 5133" d="M33.019,13.145c1.089-.331,1.681.714,1.11,1.624L20.449,29.82a1.075,1.075,0,0,1-1.243-.214l-5.232-6.337a.931.931,0,0,1,.214-1.119c.766-.842,1.36-.071,1.914.51,1.368,1.442,2.514,3.285,3.934,4.708L31.594,14.516a12.9,12.9,0,0,1,1.425-1.371" transform="translate(23.785 22.434)" fill="#43d87e"/>
      <path id="Trazado_5134" data-name="Trazado 5134" d="M17.946,7.274a.507.507,0,0,1,.315.128,27.948,27.948,0,0,1,9.3,15.63,18.679,18.679,0,0,1,.426,2.886A1.02,1.02,0,0,1,26,26.246c-.255-.812-.3-2.237-.5-3.19A25.932,25.932,0,0,0,17.186,9.121c-.757-.681-1.914-1.037-1.425-2.316.09-.236,2.357-3.377,2.557-3.546.885-.733,1.976.1,1.591,1.214-.128.367-2.074,2.65-1.963,2.8" transform="translate(26.828 5.114)" fill="#43d87e"/>
      <path id="Trazado_5135" data-name="Trazado 5135" d="M11.793,6.8a1.013,1.013,0,0,1,1.3.809l.027,11.427c1.8.994,2.764,3.157,1.317,4.922-2.625,3.2-7.42-1.024-4.564-4.064.3-.318,1.132-.641,1.195-.967l0-11.2a.981.981,0,0,1,.73-.926M12.8,22.765a1.047,1.047,0,0,0-1.3-1.621c-1.2.706.155,2.674,1.3,1.621" transform="translate(15.421 11.6)" fill="#43d87e"/>
      <path id="Trazado_5136" data-name="Trazado 5136" d="M13.927,6.4c.953.953-.5,2.408-1.431,1.5s.521-2.405,1.431-1.5" transform="translate(20.906 10.484)" fill="#43d87e"/>
      <path id="Trazado_5137" data-name="Trazado 5137" d="M7.032,16.821c.907.909-.57,2.381-1.493,1.433a1.036,1.036,0,0,1,1.493-1.433" transform="translate(9.002 28.311)" fill="#43d87e"/>
      <path id="Trazado_5138" data-name="Trazado 5138" d="M7.624,6.4c.937-.937,2.435.646,1.357,1.55A1.033,1.033,0,0,1,7.624,6.4" transform="translate(12.545 10.482)" fill="#43d87e"/>
      <path id="Trazado_5139" data-name="Trazado 5139" d="M10.475,5.671a.989.989,0,0,1,.863,1.759C10.057,8.362,9,5.994,10.475,5.671" transform="translate(16.736 9.671)" fill="#43d87e"/>
      <path id="Trazado_5140" data-name="Trazado 5140" d="M4.113,12.046a.989.989,0,0,1,.863,1.759c-1.281.931-2.335-1.436-.863-1.759" transform="translate(5.826 20.603)" fill="#43d87e"/>
      <path id="Trazado_5141" data-name="Trazado 5141" d="M10.475,18.421a.989.989,0,0,1,.863,1.759c-1.281.931-2.335-1.436-.863-1.759" transform="translate(16.736 31.536)" fill="#43d87e"/>
      <path id="Trazado_5142" data-name="Trazado 5142" d="M17.426,9.9c.858,1.007-.671,2.37-1.547,1.36S16.6,8.933,17.426,9.9" transform="translate(26.802 16.4)" fill="#43d87e"/>
      <path id="Trazado_5143" data-name="Trazado 5143" d="M4.128,9.89c.787-.926,2.424.345,1.547,1.36S3.27,10.9,4.128,9.89" transform="translate(6.645 16.409)" fill="#43d87e"/>
      <path id="Trazado_5144" data-name="Trazado 5144" d="M7.911,17.977a1,1,0,1,1,.13,1.857,1,1,0,0,1-.13-1.857" transform="translate(12.567 30.709)" fill="#43d87e"/>
      <path id="Trazado_5145" data-name="Trazado 5145" d="M5.847,7.57a1,1,0,1,1,0,1.857,1.037,1.037,0,0,1,0-1.857" transform="translate(9.041 12.865)" fill="#43d87e"/>
      <path id="Trazado_5146" data-name="Trazado 5146" d="M14.951,7.552a.994.994,0,0,1,.709,1.854.994.994,0,1,1-.709-1.854" transform="translate(24.453 12.883)" fill="#43d87e"/>
      <path id="Trazado_5147" data-name="Trazado 5147" d="M4.519,14.5a1.02,1.02,0,1,1,.451,1.987c-1.235.163-1.423-1.694-.451-1.987" transform="translate(6.688 24.771)" fill="#43d87e"/>
    </g>
  </g>
</svg>
