<svg id="Grupo_5516" data-name="Grupo 5516" xmlns="http://www.w3.org/2000/svg" xmlns:xlink="http://www.w3.org/1999/xlink" width="58.332" height="58.424" viewBox="0 0 58.332 58.424">
  <defs>
    <clipPath id="clip-path">
      <rect id="Rectángulo_6325" data-name="Rectángulo 6325" width="58.332" height="58.424" fill="#43d87e"/>
    </clipPath>
  </defs>
  <g id="Grupo_5515" data-name="Grupo 5515" clip-path="url(#clip-path)">
    <path id="Trazado_5125" data-name="Trazado 5125" d="M58.332,181.033v2.281a2.176,2.176,0,0,1-1.881,1.482c-3.758.376-8.125-.27-11.947-.009-1.969-.4-1.633-1.843-1.789-3.341-.015-.148-.049-.72-.268-.64l-8.755,5.034a10.149,10.149,0,0,0-.874,1.177,5.486,5.486,0,0,1-2.958,1.658c-.435-.039-.945.055-1.367,0a5.078,5.078,0,0,1-4.026-3.667,4.966,4.966,0,0,1,6.079-5.96l9.905-3.607c.134-.159-.683-1.169-.853-1.369a13.627,13.627,0,0,0-23.973,7.361c-.048.4.034.843,0,1.251a2.06,2.06,0,0,1-1.986,2.117c-3.76-.283-8.036.364-11.734-.006-1.946-.194-1.945-1.814-1.885-3.369A29.46,29.46,0,0,1,21.384,154.69a29.3,29.3,0,0,1,36.948,26.343m-30.18-25.439a27.443,27.443,0,0,0-14.66,4.994c-.392.277-2.8,2.076-2.757,2.348l8.15,8.164a15.978,15.978,0,0,1,9.266-3.757Zm2.05,11.75a15.61,15.61,0,0,1,9.266,3.757l8.15-8.164c.057-.328-2.944-2.512-3.418-2.826a27.661,27.661,0,0,0-14-4.516ZM13.574,182.858c.159-.882.122-1.751.261-2.647a16.134,16.134,0,0,1,2.607-6.286c.193-.29,1.056-1.236.992-1.481L9.3,164.266a27.267,27.267,0,0,0-7.346,18.592Zm42.822,0a27.267,27.267,0,0,0-7.346-18.592l-8.131,8.177.044.257c.4.275,1.243,1.922,1.59,1.939l6.962-2.381a1.954,1.954,0,0,1,1.644,3.357l-6.666,4.048c-.154.25.135,1.278.17,1.655.047.5-.156,1.159.172,1.539Zm-7.062-8.44-16.627,5.874c-.225.151.273.474.389.637a4.525,4.525,0,0,1,.864,2.5Zm-20.756,6.529c-3.481.559-2.828,6.262.988,5.78,3.729-.471,3.145-6.444-.988-5.78" transform="translate(0 -130.269)" fill="#43d87e"/>
    <path id="Trazado_5126" data-name="Trazado 5126" d="M148.933,0c1.631.565,1.977,2.5,2.755,3.857,1.437.323,4.123.168,4.508,2.044.389,1.893-1.558,2.935-2.566,4.208.087,1.62,1.18,3.989-.491,5.113-1.575,1.059-3.229-.718-4.7-1.164-1.423.508-2.921,2.1-4.484,1.253-1.865-1.011-.724-3.562-.63-5.2-.67-.9-2.426-2.086-2.582-3.217-.385-2.8,2.605-2.688,4.523-3.035C146.045,2.5,146.391.565,148.022,0Zm5.352,6.275c-.107-.159-3.181-.4-3.753-.747-.673-.409-1.374-2.569-1.8-3.327-.065-.116-.134-.3-.307-.261-.213.049-1.309,3.168-2,3.588-.573.348-3.646.588-3.753.747a.472.472,0,0,0,.107.4c.458.7,2.337,2.2,2.483,2.759.186.718-.592,3.963-.427,4.136a.723.723,0,0,0,.423-.089c.838-.305,2.034-1.233,2.76-1.455,1.2-.368,2.869,1.406,4.105,1.544.165-.173-.613-3.417-.427-4.136.146-.564,2.025-2.057,2.483-2.759a.473.473,0,0,0,.108-.4" transform="translate(-119.302)" fill="#43d87e"/>
    <path id="Trazado_5127" data-name="Trazado 5127" d="M36.526,54.862c1.319.377,3.473.152,4.282,1.471,1.223,1.993-1.188,3.432-2.238,4.8-.018,1.634,1.23,4.336-.774,5.267-1.641.762-2.96-.835-4.429-1.314-1.542.52-3.066,2.269-4.719,1.148s-.47-3.5-.481-5.1c-1.1-1.387-3.582-2.833-2.2-4.867.9-1.318,2.8-.914,4.144-1.439.848-1.244,1.31-3.716,3.154-3.808,1.963-.1,2.467,2.527,3.257,3.845m.428,9.836-.409-4.112c.691-1.143,1.9-2.022,2.684-3.132-.021-.311-3.342-.568-3.866-.916-.561-.372-1.764-3.587-2-3.587-.718.821-1.318,3.393-2.308,3.732-.947.325-2.372.249-3.272.6-.133.052-.329.09-.285.283.059.257,2.088,2.08,2.392,2.51a1.738,1.738,0,0,1,.3.626c.133.841-.468,2.66-.5,3.629-.005.184-.053.232.141.362.833-.279,2.781-1.71,3.531-1.71.631,0,3.426,1.831,3.587,1.712" transform="translate(-21.673 -43.253)" fill="#43d87e"/>
    <path id="Trazado_5128" data-name="Trazado 5128" d="M260.15,54.862c.79-1.318,1.294-3.943,3.257-3.845,1.844.092,2.305,2.564,3.154,3.808,1.355.524,3.234.106,4.144,1.439,1.387,2.033-1.1,3.48-2.2,4.867-.011,1.6,1.176,3.975-.481,5.1s-3.177-.628-4.719-1.148c-1.484.493-2.776,2.082-4.429,1.314-1.994-.926-.755-3.636-.774-5.267-1.038-1.382-3.469-2.792-2.238-4.8.817-1.33,2.965-1.063,4.282-1.471m-.428,9.836c.16.118,2.968-1.709,3.584-1.715.808-.008,2.665,1.427,3.533,1.713.194-.131.147-.179.141-.362-.028-.969-.628-2.789-.5-3.629.128-.812,2.173-2.351,2.687-3.138.051-.225-.3-.3-.449-.344-.849-.227-2.777-.269-3.418-.683-.683-.441-1.355-2.889-2-3.587-.233,0-1.436,3.215-2,3.587-.524.347-3.845.6-3.866.916.407.809,2.527,2.417,2.685,3.132.142.644-.665,3.924-.409,4.112" transform="translate(-216.65 -43.253)" fill="#43d87e"/>
  </g>
</svg>
