<svg xmlns="http://www.w3.org/2000/svg" xmlns:xlink="http://www.w3.org/1999/xlink" width="47.478" height="59.842" viewBox="0 0 47.478 59.842">
  <defs>
    <clipPath id="clip-path">
      <rect id="Rectángulo_6331" data-name="Rectángulo 6331" width="47.478" height="59.842" fill="#43d87e"/>
    </clipPath>
  </defs>
  <g id="Grupo_5528" data-name="Grupo 5528" transform="translate(0)">
    <g id="Grupo_5527" data-name="Grupo 5527" transform="translate(0)" clip-path="url(#clip-path)">
      <path id="Trazado_5184" data-name="Trazado 5184" d="M33.621,59.5l-8.35-16.55-3.109.153-7.95,15.949c-.61,1-1.406,1.063-2.093.1L8.938,52.7l-7.66,1.035a1.205,1.205,0,0,1-1.15-1.765L9.233,37.2C-2.869,25.928,1.861,5.321,17.88.853c20.369-5.683,35.738,18.326,22.255,34.4-.316.377-1.789,1.643-1.788,1.945l8.985,14.617c.395,1.037-.022,1.879-1.144,1.907L38.747,52.7l-3.46,6.7a1.144,1.144,0,0,1-1.666.106M22.059,2.349C7.4,3.512-.412,20.489,8.094,32.544A19.136,19.136,0,1,0,22.059,2.349M19.7,42.512a23.172,23.172,0,0,1-8.567-3.735l-7.395,12.1c.233.2,4.84-.722,5.6-.751a1.205,1.205,0,0,1,1.238.55c.908,1.262,1.5,3.437,2.374,4.792.093.145-.016.268.332.192ZM44.017,50.88,36.465,38.786a21.965,21.965,0,0,1-8.559,3.726l6.417,13.151c.348.076.238-.047.332-.192.875-1.355,1.466-3.528,2.374-4.792.391-.543.747-.575,1.39-.547.79.035,5.327.945,5.6.747" transform="translate(0 0)" fill="#43d87e"/>
      <path id="Trazado_5185" data-name="Trazado 5185" d="M50.22,23.543A16.733,16.733,0,1,1,37.194,48.611c-6.02-10.6.9-24.066,13.026-25.068m.149,2.391A14.4,14.4,0,0,0,38.486,45.822C43.116,56.861,58.663,57.609,64.3,47.064a14.4,14.4,0,0,0-13.928-21.13" transform="translate(-28.013 -18.803)" fill="#43d87e"/>
      <path id="Trazado_5186" data-name="Trazado 5186" d="M60.439,55.565a1.446,1.446,0,0,1,.64-.329l6.774-.985L71.063,47.9a1.2,1.2,0,0,1,2.038.188c1.155,1.714,1.9,4.293,3.016,6.1,2.022.532,4.356.475,6.36.951.924.219,1.557.521,1.3,1.62-.25,1.084-5.039,4.694-5.153,5.279.192,2.09.976,4.372,1.137,6.429.1,1.236-.283,1.873-1.625,1.63l-6.162-3.185L66.02,70.05a1.243,1.243,0,0,1-1.825-1l1.089-7L60.39,57.088a1.168,1.168,0,0,1,.048-1.524m11.735-4.082c-.348-.076-.239.047-.332.192-.618.957-1.764,4.237-2.513,4.653-1.031.573-4.071.532-5.358.836l3.847,3.99-.713,5.575,4.984-2.539,4.858,2.539c.274-.373-1-4.52-.677-5.539.283-.9,3.24-3,3.811-4.025-1.239-.374-4.608-.283-5.516-.976-.721-.551-1.839-3.763-2.392-4.7" transform="translate(-48.148 -37.968)" fill="#43d87e"/>
    </g>
  </g>
</svg>
