<svg xmlns="http://www.w3.org/2000/svg" xmlns:xlink="http://www.w3.org/1999/xlink" width="59.145" height="59.251" viewBox="0 0 59.145 59.251">
  <defs>
    <clipPath id="clip-path">
      <rect id="Rectángulo_6329" data-name="Rectángulo 6329" width="59.145" height="59.251" fill="#43d87e"/>
    </clipPath>
  </defs>
  <g id="Grupo_5524" data-name="Grupo 5524" transform="translate(0 0)">
    <g id="Grupo_5523" data-name="Grupo 5523" transform="translate(0 0)" clip-path="url(#clip-path)">
      <path id="Trazado_5165" data-name="Trazado 5165" d="M68.541,89.726a3.182,3.182,0,0,1-2.195-3.7A2.885,2.885,0,0,1,63.6,83.738c-.044-.283.011-1.347-.041-1.406-.071-.081-.679-.017-.86-.585-.366-1.155.855-1.26.88-1.35l-.02-1.769a.934.934,0,0,1-.86-1.292c.081-.246.387-.386.413-.633.035-.335-.33-.85-.35-1.212-2.867,1.522-8,4.5-11.245,2.994C47.7,76.711,50.12,70.7,51.5,67.967a15.656,15.656,0,0,1,1.213-2.141.925.925,0,0,1,1.615.8,32.078,32.078,0,0,1-1.517,2.88c-.841,1.819-3.084,7.177.3,7.489,2.731.252,6.214-1.688,8.492-3.072-3.171-3.613-6.088-7.212-6.355-12.262a23.061,23.061,0,0,1,.679-5.65c-2.955-3.991-8.4-11.062-8.07-16.231.418-6.5,8.709-2.89,11.978-1.115a38.137,38.137,0,0,1,6.15,4.021.936.936,0,0,1-.832,1.647c-3.353-2.235-7.049-5.073-11.007-6.1-5.258-1.367-5.024,1.8-3.569,5.659,1.367,3.629,3.888,7.131,6.236,10.185,5.046-10.493,21.406-10.5,26.448,0A42.508,42.508,0,0,0,89.5,43.9c1.515-3.956,1.616-7.047-3.661-5.636-3.92,1.048-7.572,3.88-10.915,6.078a.941.941,0,0,1-.9-1.6,31.922,31.922,0,0,1,4.11-2.825c3.213-1.993,13.507-7.5,14.079-.239.408,5.178-5.1,12.347-8.065,16.341a22.982,22.982,0,0,1,.679,5.765c-.286,4.963-3.234,8.592-6.355,12.146A19.869,19.869,0,0,0,81.2,75.475c1.553.729,5.65,2.418,7.048,1.018,1.379-1.382-.268-5.437-.98-6.982a32.119,32.119,0,0,1-1.517-2.88.923.923,0,0,1,1.663-.738,23,23,0,0,1,1.967,3.816c2.971,7.133.422,11.171-7.329,8.153a49.062,49.062,0,0,1-4.622-2.319A2.268,2.268,0,0,0,76.97,76.7c.037.361.612.464.441,1.25-.139.639-.879.625-.909.733V80.4c.024.089,1.246.194.88,1.35-.18.569-.789.5-.859.585-.052.06,0,1.123-.041,1.406a2.885,2.885,0,0,1-2.744,2.285,3.182,3.182,0,0,1-2.2,3.7ZM68.864,48.1c-4.651.364-9.089,3.182-10.712,7.667a78.592,78.592,0,0,0,11.933,12.08A94.689,94.689,0,0,0,81.83,56c.285-.48-.575-1.771-.883-2.253A12.875,12.875,0,0,0,68.864,48.1M62.81,63.758c-1.76-1.765-3.418-3.642-5.073-5.505a.6.6,0,0,1-.17-.351c-.162-.027-.168.206-.2.321a12.859,12.859,0,0,0,.282,6.363c.986,3.281,3.412,5.684,5.458,8.309l.154.039,5.273-3.865c-1.926-1.75-3.891-3.468-5.729-5.311M82.518,57.9a.6.6,0,0,1-.17.351,115.311,115.311,0,0,1-10.8,10.816l5.273,3.865.154-.039a62.477,62.477,0,0,0,4.177-5.427,13.055,13.055,0,0,0,1.7-8.569c-.041-.269-.1-.869-.331-1M75.125,76.765A4.178,4.178,0,0,1,75.8,74.6l-5.72-4.309-5.808,4.226a4.965,4.965,0,0,1,.684,2.246Zm-.462,1.851h-9.24v1.852h9.24Zm0,3.7h-9.24c.007.715-.187,1.565.66,1.827,2.441-.124,5.2.25,7.6.03,1.164-.106.985-.915.976-1.857m-2.772,3.7h-3.7c.029.565-.178,1.387.417,1.723a7.265,7.265,0,0,0,2.787.042c.666-.285.472-1.184.491-1.765" transform="translate(-40.465 -30.475)" fill="#43d87e"/>
      <path id="Trazado_5166" data-name="Trazado 5166" d="M6.831,302.675H6.138c-.656-.46-.72-1.381-1.056-2.124a8.656,8.656,0,0,0-2.95-3.64c-.529-.359-1.915-.822-2.064-1.289-.385-1.208,1.185-1.412,2-1.947a8.644,8.644,0,0,0,3.018-3.688c.377-.85.509-2.611,1.836-2.037.463.2.728,1.5.969,2.037a8.767,8.767,0,0,0,3.018,3.688c.811.534,2.381.739,2,1.947-.152.475-1.474.9-2,1.241a8.987,8.987,0,0,0-3.09,3.847c-.3.678-.3,1.543-.984,1.965M6.6,291.335c-.269-.058-.185.036-.257.149-.139.217-.228.524-.386.767a8.683,8.683,0,0,1-2.937,2.961l1.042.807c.3.345.685.637.982.984.6.7.954,1.559,1.556,2.2a8.424,8.424,0,0,1,1.391-2.253l1.961-1.738A7.96,7.96,0,0,1,6.6,291.335" transform="translate(-0.007 -243.424)" fill="#43d87e"/>
      <path id="Trazado_5167" data-name="Trazado 5167" d="M305.569,302.756c-.674-.431-.676-1.259-.986-1.963a9.009,9.009,0,0,0-2.952-3.755c-.826-.572-2.519-.827-2.132-2.042.151-.475,1.474-.9,2-1.241a8.737,8.737,0,0,0,2.633-2.917c.345-.626.807-2.294,1.092-2.61a.932.932,0,0,1,1.349-.014c.443.949.712,1.939,1.251,2.855a8.673,8.673,0,0,0,2.449,2.638c.73.5,1.587.643,2.115,1.294v.694c-.558.662-1.427.819-2.182,1.344a8.746,8.746,0,0,0-2.884,3.591c-.332.751-.375,1.658-1.056,2.124Zm.46-11.341-.237.071a7.818,7.818,0,0,1-3.341,3.75l.072.239a7.76,7.76,0,0,1,3.278,3.809c.123.093.937-1.378,1.058-1.542a7.313,7.313,0,0,1,2.521-2.278l-.072-.239a7.718,7.718,0,0,1-3.279-3.809" transform="translate(-253.239 -243.505)" fill="#43d87e"/>
      <path id="Trazado_5168" data-name="Trazado 5168" d="M332.617,130.581v.694c-.283.541-.794.519-1.234.789a5.231,5.231,0,0,0-1.792,1.676c-.358.577-.693,2.053-1.242,2.228-1.249.4-1.363-1.158-1.834-1.993a4.858,4.858,0,0,0-1.832-1.868c-.576-.359-1.353-.307-1.314-1.235.034-.821.726-.766,1.242-1.081a4.9,4.9,0,0,0,1.9-1.911c.291-.517.607-1.766,1.049-1.957,1.276-.552,1.381.976,1.776,1.749a5.178,5.178,0,0,0,2.043,2.119c.436.272.953.247,1.234.789m-4.507-1.5-.238.072a4.175,4.175,0,0,1-1.607,1.666v.227a3.867,3.867,0,0,1,1.618,1.737l.238-.072,1.484-1.737c.047-.271-1.526-1.376-1.5-1.893" transform="translate(-273.472 -106.395)" fill="#43d87e"/>
      <path id="Trazado_5169" data-name="Trazado 5169" d="M4.514,0c.68.466.7,1.345,1.132,2.048A4.606,4.606,0,0,0,7.109,3.475c.537.342,1.263.3,1.224,1.209C8.3,5.49,7.7,5.4,7.248,5.691a4.556,4.556,0,0,0-1.6,1.52c-.482.806-.6,2.526-1.912,1.96C3.267,8.968,3,7.735,2.688,7.21a4.553,4.553,0,0,0-1.6-1.52C.638,5.4.035,5.49,0,4.684c-.038-.908.688-.867,1.225-1.209A4.607,4.607,0,0,0,2.688,2.048C3.117,1.345,3.141.466,3.821,0Zm-.4,3.24L2.9,4.671,4.223,6.018,5.429,4.587Z" transform="translate(0)" fill="#43d87e"/>
      <path id="Trazado_5170" data-name="Trazado 5170" d="M333.87,0c.835.745.829,1.914,1.67,2.782.661.681,1.579.795,2.141,1.5v.694c-.249.507-.7.48-1.077.715A4.518,4.518,0,0,0,335,7.21c-.438.732-.512,2.1-1.534,2.056-.873-.037-.954-1.166-1.312-1.821a4.55,4.55,0,0,0-1.714-1.754c-.492-.318-1.123-.219-1.085-1.117.034-.806.637-.717,1.085-1.006a4.866,4.866,0,0,0,1.6-1.519c.428-.7.452-1.583,1.132-2.048Zm-.4,3.24-1.206,1.431,1.319,1.347,1.206-1.431Z" transform="translate(-278.536)" fill="#43d87e"/>
      <path id="Trazado_5171" data-name="Trazado 5171" d="M4.368,125.949c1.183-.259,1.149.926,1.513,1.675a5.278,5.278,0,0,0,2.064,2.214c.537.334,1.279.3,1.314,1.124.039.928-.738.876-1.314,1.235a5.148,5.148,0,0,0-1.971,2.075c-.415.795-.457,2.179-1.695,1.785-.537-.171-.811-1.441-1.13-1.993A5.34,5.34,0,0,0,1.316,132.2C.787,131.87.037,131.9,0,131.073c-.039-.928.738-.876,1.314-1.235a4.858,4.858,0,0,0,1.832-1.868c.331-.587.587-1.883,1.219-2.022m.376,3.218-.238.072A4.175,4.175,0,0,1,2.9,130.9v.227a3.867,3.867,0,0,1,1.618,1.737l.238-.072,1.484-1.737c.047-.271-1.526-1.376-1.5-1.893" transform="translate(-0.001 -106.484)" fill="#43d87e"/>
      <path id="Trazado_5172" data-name="Trazado 5172" d="M97.384,102.831c.61-.126,1.82,1.109,2.159,1.608.661.97-.247,1.936-1.17,1.4a6.467,6.467,0,0,1-1.766-1.943,1.1,1.1,0,0,1,.777-1.069" transform="translate(-81.697 -86.956)" fill="#43d87e"/>
      <path id="Trazado_5173" data-name="Trazado 5173" d="M268,102.776a1.007,1.007,0,0,1,1.136,1.258,7.351,7.351,0,0,1-2.03,1.914A1,1,0,0,1,266,104.839a6.665,6.665,0,0,1,2-2.064" transform="translate(-224.942 -86.901)" fill="#43d87e"/>
      <path id="Trazado_5174" data-name="Trazado 5174" d="M185.978,65.994a.949.949,0,0,1,1.058.4,8.274,8.274,0,0,1,.1,2.624.936.936,0,0,1-1.817-.1c-.112-.717-.228-2.729.655-2.921" transform="translate(-156.663 -55.787)" fill="#43d87e"/>
      <path id="Trazado_5175" data-name="Trazado 5175" d="M60.578,191.852a10.991,10.991,0,0,1,2.465.027.941.941,0,0,1-.186,1.793,11.088,11.088,0,0,1-2.367-.045.947.947,0,0,1,.088-1.775" transform="translate(-50.668 -162.202)" fill="#43d87e"/>
      <path id="Trazado_5176" data-name="Trazado 5176" d="M300.11,191.852a10.991,10.991,0,0,1,2.465.027.941.941,0,0,1-.186,1.793,11.087,11.087,0,0,1-2.367-.045.947.947,0,0,1,.088-1.775" transform="translate(-253.24 -162.202)" fill="#43d87e"/>
      <path id="Trazado_5177" data-name="Trazado 5177" d="M89.023,262.528a.954.954,0,0,1,1.1,1.217,11.135,11.135,0,0,1-1.908,1.682.942.942,0,0,1-1.227-1.345,10.1,10.1,0,0,1,2.031-1.554" transform="translate(-73.454 -222.001)" fill="#43d87e"/>
      <path id="Trazado_5178" data-name="Trazado 5178" d="M275.519,262.557c.605-.182,2.481,1.218,2.638,1.708a.9.9,0,0,1-1.188,1.19,6.243,6.243,0,0,1-2.09-1.845,1.225,1.225,0,0,1,.64-1.052" transform="translate(-232.461 -222.031)" fill="#43d87e"/>
      <path id="Trazado_5179" data-name="Trazado 5179" d="M153.512,125.94c.541-.039,1.332-.191,1.695.315a.954.954,0,0,1-.315,1.415,12.44,12.44,0,0,0-4.519,1.027c-.748.358-1.868,1.557-2.545.44-.383-.632-.024-.977.472-1.36a11.218,11.218,0,0,1,5.212-1.837" transform="translate(-124.882 -106.464)" fill="#43d87e"/>
      <path id="Trazado_5180" data-name="Trazado 5180" d="M132.439,155.975a.941.941,0,0,1,.525,1.806.941.941,0,0,1-.525-1.806" transform="translate(-111.441 -131.881)" fill="#43d87e"/>
    </g>
  </g>
</svg>
